<svg id="Capa_1" enable-background="new 0 0 512 512" height="512" viewBox="0 0 512 512" width="512" xmlns="http://www.w3.org/2000/svg"><g><g><g><path d="m446.323 130.871-73.02-102.808c-1.393-1.961-3.077-3.65-4.965-5.04h-275.098c-3.426 0-6.747.804-9.73 2.286l-.176 8.177-75.947 107.429-7.387 5c-.006 4.542 1.395 8.974 4.202 12.825l216.332 296.852 8.151-1.354 217.479-297.287c5.652-7.756 5.716-18.256.159-26.08z" fill="#9bc4f9"/><path d="m287.631 373.661 55.134-227.746h-173.915l71.209 292.775z" fill="#c9e0fd"/><g fill="#7fb2f9"><path d="m438.698 135.999c3.659 7.254 3.037 16.059-1.854 22.771l-216.31 296.823 17.764 24.375c8.754 12.013 26.673 12.013 35.428 0l234.072-321.198c2.791-3.83 4.193-8.34 4.202-12.855l-12.497-9.916z"/><path d="m365.321 32.249 35.534 50.029 11.734-16.583 20.179-28.517-4.655-11.879c-3.064-1.581-6.16-2.275-9.707-2.275h-70.954c7.098-.001 13.758 3.437 17.869 9.225z"/></g><g><path d="m255.808 23.023-86.958 122.892h173.915z" fill="#7fb2f9"/><path d="m446.323 130.871-46.544-65.531-57.014 80.575h107.574c.495-5.214-.836-10.567-4.016-15.044z" fill="#7fb2f9"/><path d="m509.619 135.936-73.723-104.188c-2.084-2.762-4.758-4.954-7.784-6.45l-33.8 47.768 42.688 60.103c2.711 3.817 4.057 8.284 4.046 12.746h70.954c.008-3.423-.788-6.846-2.381-9.979z" fill="#60a0f7"/></g></g><path d="m168.85 145.915-85.339-120.606c-3.214 1.593-6.038 3.966-8.168 6.979l-71.325 100.891c-2.699 3.818-4.035 8.28-4.018 12.736z" fill="#7fb2f9"/><path d="m291.306 358.478-53.051 72.797 13.954 57.373c.574.1 1.152.171 1.732.225.11.01.221.02.331.028 1.149.09 2.303.091 3.452.002.116-.009.231-.019.347-.029.575-.054 1.149-.123 1.72-.222h.001z" fill="#bcd6f9"/></g></g></svg>